<svg width="1440" height="552" viewBox="0 0 1440 552" fill="none" xmlns="http://www.w3.org/2000/svg">
<path d="M1595.15 66.6718C1595.15 66.6718 1620.08 88.5762 1620.87 94.1241C1628.91 108.157 1629.43 110.692 1629.43 110.692C1637.41 124.649 1645.49 154.894 1642.04 169.946C1638.23 186.584 1634.02 202.453 1629.43 218.502C1627.42 225.528 1629.55 232.898 1628.14 239.979C1627.09 245.287 1621.74 247.782 1620.87 252.865C1617.27 274.111 1593.3 291.94 1575.12 303.849C1562.16 312.342 1546.9 317.732 1537.07 329.434C1515.79 354.759 1504.97 369.017 1471.43 384.153C1369.3 430.244 1252.85 453.662 1142.39 479.211C1074.62 494.888 1008.34 503.887 939.286 512.453C916.923 515.227 898.12 525.643 875.146 527.207C822.761 530.772 768.497 528.102 716.08 527.02C529.372 523.164 348.801 489.698 183.723 411.419C166.415 403.212 148.252 399.057 129.846 393.304C103.502 385.071 80.6726 371.657 57.3687 358.381C25.8716 340.438 -8.31299 321.986 -27.0818 293.204C-44.3462 266.729 -53.7827 238.528 -63 209.165C-36.9166 209.165 240.721 98.072 266.804 98.072H353.9H404.576H453.47C496.577 98.072 541.386 105.856 583.525 96.3912C612.702 89.8377 628.971 91.729 660.499 90.1192C711.92 83.1677 758.704 78.7878 805.876 77.3162C823.307 76.7724 853.468 77.2412 870.229 73.5811C892.443 73.5811 1000.82 51.3603 1000.82 51.3603C1019.3 45.0949 1087.91 23.1298 1107.12 16.8079C1115.53 14.0387 1118.04 12.6032 1121.88 11.1678C1121.88 11.1678 1132.83 9.73232 1159.93 5.22911C1183.23 2.55508 1216.77 0 1242.02 0C1271.51 0 1299.68 2.07661 1329.48 2.07661C1379.51 2.07661 1426.39 9.61178 1475.74 17.8665C1488.48 19.9978 1511.3 25.165 1522.95 30.2542C1530.34 33.481 1541.23 38.8859 1548.59 42.2692C1564.96 49.7928 1579.26 58.737 1595.15 66.6718Z" fill="#004A99"/>
<path d="M1596.29 86.1759C1596.29 86.1759 1621.22 108.246 1622.02 113.836C1630.05 127.975 1630.57 130.529 1630.57 130.529C1638.56 144.591 1646.63 175.065 1643.18 190.231C1639.37 206.995 1635.16 222.984 1630.57 239.154C1628.56 246.234 1630.7 253.659 1629.29 260.794C1628.23 266.141 1622.88 268.655 1622.02 273.777C1618.41 295.183 1594.44 313.148 1576.26 325.146C1563.3 333.704 1548.04 339.135 1538.21 350.925C1516.93 376.442 1506.11 390.807 1472.57 406.058C1370.45 452.497 1253.99 476.092 1143.54 501.835C1075.76 517.63 1009.48 526.697 940.428 535.328C918.065 538.123 899.263 548.618 876.289 550.193C823.904 553.786 769.64 551.096 717.223 550.005C530.515 546.12 349.944 512.4 184.866 433.53C167.557 425.261 149.395 421.074 130.989 415.278C104.645 406.982 81.8152 393.467 58.5112 380.091C27.0142 362.012 -7.17041 343.42 -25.9392 314.421C-43.2036 287.746 -52.6401 259.332 -61.8574 229.746C-35.774 229.746 241.864 117.814 267.947 117.814H355.043H405.719H454.613C497.72 117.814 542.528 125.657 584.668 116.12C613.845 109.517 630.114 111.423 661.642 109.801C713.063 102.797 759.846 98.3835 807.018 96.9008C824.449 96.3529 854.611 96.8253 871.371 93.1375C893.585 93.1375 1001.96 70.7487 1001.96 70.7487C1020.45 64.4358 1089.06 42.3047 1108.26 35.935C1116.67 33.1448 1119.18 31.6985 1123.02 30.2522C1123.02 30.2522 1133.97 28.8059 1161.07 24.2687C1184.37 21.5744 1217.91 19 1243.17 19C1272.65 19 1300.82 21.0923 1330.62 21.0923C1380.65 21.0923 1427.53 28.6845 1476.88 37.0016C1489.62 39.149 1512.44 44.3553 1524.1 49.4829C1531.49 52.7342 1542.37 58.1799 1549.73 61.5888C1566.1 69.1693 1580.4 78.1811 1596.29 86.1759Z" fill="white"/>
</svg>
