<svg width="1440" height="552" viewBox="0 0 1440 552" fill="none" xmlns="http://www.w3.org/2000/svg">
<path d="M1602.15 66.6718C1602.15 66.6718 1627.08 88.5762 1627.87 94.1241C1635.91 108.157 1636.43 110.692 1636.43 110.692C1644.41 124.649 1652.49 154.894 1649.04 169.946C1645.23 186.584 1641.02 202.453 1636.43 218.502C1634.42 225.528 1636.55 232.898 1635.14 239.979C1634.09 245.287 1628.74 247.782 1627.87 252.865C1624.27 274.111 1600.3 291.94 1582.12 303.849C1569.16 312.342 1553.9 317.732 1544.07 329.434C1522.79 354.759 1511.97 369.017 1478.43 384.153C1376.3 430.244 1259.85 453.662 1149.39 479.211C1081.62 494.888 1015.34 503.887 946.286 512.453C923.923 515.227 905.12 525.643 882.146 527.207C829.761 530.772 775.497 528.102 723.08 527.02C536.372 523.164 355.801 489.698 190.723 411.419C173.415 403.212 155.252 399.057 136.846 393.304C110.502 385.071 87.6726 371.657 64.3687 358.381C32.8716 340.438 -1.31299 321.986 -20.0818 293.204C-37.3462 266.729 -46.7827 238.528 -56 209.165C-29.9166 209.165 247.721 98.072 273.804 98.072H360.9H411.576H460.47C503.577 98.072 548.386 105.856 590.525 96.3912C619.702 89.8377 635.971 91.729 667.499 90.1192C718.92 83.1677 765.704 78.7878 812.876 77.3162C830.307 76.7724 860.468 77.2412 877.229 73.5811C899.443 73.5811 1007.82 51.3603 1007.82 51.3603C1026.3 45.0949 1094.91 23.1298 1114.12 16.8079C1122.53 14.0387 1125.04 12.6032 1128.88 11.1678C1128.88 11.1678 1139.83 9.73232 1166.93 5.22911C1190.23 2.55508 1223.77 0 1249.02 0C1278.51 0 1306.68 2.07661 1336.48 2.07661C1386.51 2.07661 1433.39 9.61178 1482.74 17.8665C1495.48 19.9978 1518.3 25.165 1529.95 30.2542C1537.34 33.481 1548.23 38.8859 1555.59 42.2692C1571.96 49.7928 1586.26 58.737 1602.15 66.6718Z" fill="#FFC107"/>
<path d="M1603.29 86.1759C1603.29 86.1759 1628.22 108.246 1629.02 113.836C1637.05 127.975 1637.57 130.529 1637.57 130.529C1645.56 144.591 1653.63 175.065 1650.18 190.231C1646.37 206.995 1642.16 222.984 1637.57 239.154C1635.56 246.234 1637.7 253.659 1636.29 260.794C1635.23 266.141 1629.88 268.655 1629.02 273.777C1625.41 295.183 1601.44 313.148 1583.26 325.146C1570.3 333.704 1555.04 339.135 1545.21 350.925C1523.93 376.442 1513.11 390.807 1479.57 406.058C1377.45 452.497 1260.99 476.092 1150.54 501.835C1082.76 517.63 1016.48 526.697 947.428 535.328C925.065 538.123 906.263 548.618 883.289 550.193C830.904 553.786 776.64 551.096 724.223 550.005C537.515 546.12 356.944 512.4 191.866 433.53C174.557 425.261 156.395 421.074 137.989 415.278C111.645 406.982 88.8152 393.467 65.5112 380.091C34.0142 362.012 -0.17041 343.42 -18.9392 314.421C-36.2036 287.746 -45.6401 259.332 -54.8574 229.746C-28.774 229.746 248.864 117.814 274.947 117.814H362.043H412.719H461.613C504.72 117.814 549.528 125.657 591.668 116.12C620.845 109.517 637.114 111.423 668.642 109.801C720.063 102.797 766.846 98.3835 814.018 96.9008C831.449 96.3529 861.611 96.8253 878.371 93.1375C900.585 93.1375 1008.96 70.7487 1008.96 70.7487C1027.45 64.4358 1096.06 42.3047 1115.26 35.935C1123.67 33.1448 1126.18 31.6985 1130.02 30.2522C1130.02 30.2522 1140.97 28.8059 1168.07 24.2687C1191.37 21.5744 1224.91 19 1250.17 19C1279.65 19 1307.82 21.0923 1337.62 21.0923C1387.65 21.0923 1434.53 28.6845 1483.88 37.0016C1496.62 39.149 1519.44 44.3553 1531.1 49.4829C1538.49 52.7342 1549.37 58.1799 1556.73 61.5888C1573.1 69.1693 1587.4 78.1811 1603.29 86.1759Z" fill="white"/>
</svg>
