<svg width="24" height="27" viewBox="0 0 24 27" fill="none" xmlns="http://www.w3.org/2000/svg">
<path d="M6 16.9468H5.4C4.07 16.9468 3 15.751 3 14.2647V6.21826C3 4.73192 4.07 3.53613 5.4 3.53613H12.6C13.93 3.53613 15 4.73192 15 6.21826V6.8888M11.4 10.2415H18.6C19.2365 10.2415 19.847 10.524 20.2971 11.027C20.7471 11.53 21 12.2122 21 12.9236V20.97C21 21.6813 20.7471 22.3635 20.2971 22.8665C19.847 23.3695 19.2365 23.6521 18.6 23.6521H11.4C10.7635 23.6521 10.153 23.3695 9.70294 22.8665C9.25286 22.3635 9 21.6813 9 20.97V12.9236C9 12.5714 9.06208 12.2226 9.18269 11.8972C9.3033 11.5718 9.48008 11.2761 9.70294 11.027C9.9258 10.778 10.1904 10.5804 10.4816 10.4456C10.7727 10.3108 11.0848 10.2415 11.4 10.2415Z" stroke="#333333" stroke-width="1.5" stroke-miterlimit="10" stroke-linecap="round" stroke-linejoin="round"/>
</svg>
