<svg width="24" height="24" viewBox="0 0 24 24" fill="none" xmlns="http://www.w3.org/2000/svg">
<mask id="mask0_1110_1890" style="mask-type:alpha" maskUnits="userSpaceOnUse" x="0" y="0" width="24" height="24">
<rect width="24" height="24" fill="#D9D9D9"/>
</mask>
<g mask="url(#mask0_1110_1890)">
<path d="M7 19H17V17H7V19ZM12 16L16 12L14.6 10.6L13 12.15V8H11V12.15L9.4 10.6L8 12L12 16ZM12 24C10.6167 24 9.31667 23.7375 8.1 23.2125C6.88333 22.6875 5.825 21.975 4.925 21.075C4.025 20.175 3.3125 19.1167 2.7875 17.9C2.2625 16.6833 2 15.3833 2 14C2 12.6167 2.2625 11.3167 2.7875 10.1C3.3125 8.88333 4.025 7.825 4.925 6.925C5.825 6.025 6.88333 5.3125 8.1 4.7875C9.31667 4.2625 10.6167 4 12 4C13.3833 4 14.6833 4.2625 15.9 4.7875C17.1167 5.3125 18.175 6.025 19.075 6.925C19.975 7.825 20.6875 8.88333 21.2125 10.1C21.7375 11.3167 22 12.6167 22 14C22 15.3833 21.7375 16.6833 21.2125 17.9C20.6875 19.1167 19.975 20.175 19.075 21.075C18.175 21.975 17.1167 22.6875 15.9 23.2125C14.6833 23.7375 13.3833 24 12 24Z" fill="#333333"/>
</g>
</svg>
